<?xml version="1.0" encoding="utf-8"?>
<!-- Generator: Adobe Illustrator 16.0.0, SVG Export Plug-In . SVG Version: 6.00 Build 0)  -->
<!DOCTYPE svg PUBLIC "-//W3C//DTD SVG 1.1//EN" "http://www.w3.org/Graphics/SVG/1.1/DTD/svg11.dtd">
<svg version="1.1" id="Ebene_1" xmlns="http://www.w3.org/2000/svg" xmlns:xlink="http://www.w3.org/1999/xlink" x="0px" y="0px"
	 width="237.1px" height="132.949px" viewBox="0 0 237.1 132.949" enable-background="new 0 0 237.1 132.949" xml:space="preserve">
<path fill-rule="evenodd" clip-rule="evenodd" fill="#7a495d" d="M205.903,89.753c-2.19-4.647-29.574-83.774-34.077-86.393
	C167.323,0.741,163.334,0,161.267,0s-11.999,0-11.999,0s-15.941-0.229-18.238,0c-2.298,0.23-7.006,1.18-9.12,2.88
	c-2.113,1.7-44.047,63.498-46.556,65.755c-0.846,0.76-2.268,0.528-2.4,0.48c-1.102-0.404-7.688-6.728-9.12-8.16
	c-1.431-1.432-7.224-3.055-8.639-0.48c-6.753,7.715-37.502,72.4-51.835,72.474c0,0,217.373-0.197,229.068-0.024
	C225.398,131.865,208.056,94.322,205.903,89.753z M186.705,67.675c-3.256-1.56-25.918-48.476-25.918-48.476s-1.173-3.251-1.92,0.48
	c-0.746,3.73-1.94,68.202-3.839,66.234s-8.572-63.042-8.64-65.754c-0.067-2.713-1.256-5.379-3.359-1.92S117.11,77.754,117.11,77.754
	s-1.106,3.563-1.92,3.359c-0.814-0.203,0-3.839,0-3.839s11.504-46.097,10.079-47.996c-1.424-1.899-3.839,1.44-3.839,1.44
	S80.279,86.508,79.193,84.473c-1.085-2.035,47.516-72.954,47.516-72.954s-0.226-1.455,4.32-2.879c4.545-1.425,31.197,0,31.197,0
	s1.945-0.449,4.32,2.4C168.92,13.888,189.961,69.235,186.705,67.675z"/>
<path fill-rule="evenodd" clip-rule="evenodd" fill="#E30E13" d="M232.428,132.925c0.12,0.018,0.238,0.027,0.353,0.024
	C233.057,132.94,232.924,132.933,232.428,132.925z"/>
</svg>
